<mxfile host="app.diagrams.net" agent="Mozilla/5.0 (Windows NT 10.0; Win64; x64) AppleWebKit/537.36 (KHTML, like Gecko) Chrome/135.0.0.0 Safari/537.36" version="26.2.14">
  <diagram name="Page-1" id="2YBvvXClWsGukQMizWep">
    <mxGraphModel dx="624" dy="477" grid="1" gridSize="10" guides="1" tooltips="1" connect="1" arrows="1" fold="1" page="1" pageScale="1" pageWidth="1100" pageHeight="850" math="0" shadow="0">
      <root>
        <mxCell id="0" />
        <mxCell id="1" parent="0" />
        <mxCell id="1x29o_3ZwKhWgOv2N2SG-2" value="APP端" style="shape=umlLifeline;perimeter=lifelinePerimeter;whiteSpace=wrap;html=1;container=1;dropTarget=0;collapsible=0;recursiveResize=0;outlineConnect=0;portConstraint=eastwest;newEdgeStyle={&quot;curved&quot;:0,&quot;rounded&quot;:0};fontFamily=宋体;fontSize=14;" parent="1" vertex="1">
          <mxGeometry x="20" y="50" width="80" height="420" as="geometry" />
        </mxCell>
        <mxCell id="1x29o_3ZwKhWgOv2N2SG-4" value="" style="html=1;points=[[0,0,0,0,5],[0,1,0,0,-5],[1,0,0,0,5],[1,1,0,0,-5]];perimeter=orthogonalPerimeter;outlineConnect=0;targetShapes=umlLifeline;portConstraint=eastwest;newEdgeStyle={&quot;curved&quot;:0,&quot;rounded&quot;:0};fontFamily=宋体;fontSize=14;" parent="1x29o_3ZwKhWgOv2N2SG-2" vertex="1">
          <mxGeometry x="35" y="50" width="10" height="360" as="geometry" />
        </mxCell>
        <mxCell id="1x29o_3ZwKhWgOv2N2SG-3" value="Machine&lt;div&gt;Controller&lt;/div&gt;" style="shape=umlLifeline;perimeter=lifelinePerimeter;whiteSpace=wrap;html=1;container=1;dropTarget=0;collapsible=0;recursiveResize=0;outlineConnect=0;portConstraint=eastwest;newEdgeStyle={&quot;curved&quot;:0,&quot;rounded&quot;:0};fontFamily=宋体;fontSize=14;" parent="1" vertex="1">
          <mxGeometry x="160" y="50" width="80" height="420" as="geometry" />
        </mxCell>
        <mxCell id="1x29o_3ZwKhWgOv2N2SG-5" value="" style="html=1;points=[[0,0,0,0,5],[0,1,0,0,-5],[1,0,0,0,5],[1,1,0,0,-5]];perimeter=orthogonalPerimeter;outlineConnect=0;targetShapes=umlLifeline;portConstraint=eastwest;newEdgeStyle={&quot;curved&quot;:0,&quot;rounded&quot;:0};fontFamily=宋体;fontSize=14;" parent="1x29o_3ZwKhWgOv2N2SG-3" vertex="1">
          <mxGeometry x="35" y="50" width="10" height="360" as="geometry" />
        </mxCell>
        <mxCell id="1x29o_3ZwKhWgOv2N2SG-6" value="Machine&lt;div&gt;Service&lt;/div&gt;" style="shape=umlLifeline;perimeter=lifelinePerimeter;whiteSpace=wrap;html=1;container=1;dropTarget=0;collapsible=0;recursiveResize=0;outlineConnect=0;portConstraint=eastwest;newEdgeStyle={&quot;curved&quot;:0,&quot;rounded&quot;:0};fontFamily=宋体;fontSize=14;" parent="1" vertex="1">
          <mxGeometry x="310" y="50" width="80" height="420" as="geometry" />
        </mxCell>
        <mxCell id="1x29o_3ZwKhWgOv2N2SG-7" value="" style="html=1;points=[[0,0,0,0,5],[0,1,0,0,-5],[1,0,0,0,5],[1,1,0,0,-5]];perimeter=orthogonalPerimeter;outlineConnect=0;targetShapes=umlLifeline;portConstraint=eastwest;newEdgeStyle={&quot;curved&quot;:0,&quot;rounded&quot;:0};fontFamily=宋体;fontSize=14;" parent="1x29o_3ZwKhWgOv2N2SG-6" vertex="1">
          <mxGeometry x="35" y="50" width="10" height="350" as="geometry" />
        </mxCell>
        <mxCell id="1x29o_3ZwKhWgOv2N2SG-8" value="Order&lt;div&gt;Service&lt;/div&gt;" style="shape=umlLifeline;perimeter=lifelinePerimeter;whiteSpace=wrap;html=1;container=1;dropTarget=0;collapsible=0;recursiveResize=0;outlineConnect=0;portConstraint=eastwest;newEdgeStyle={&quot;curved&quot;:0,&quot;rounded&quot;:0};fontFamily=宋体;fontSize=14;" parent="1" vertex="1">
          <mxGeometry x="465" y="50" width="80" height="420" as="geometry" />
        </mxCell>
        <mxCell id="1x29o_3ZwKhWgOv2N2SG-9" value="" style="html=1;points=[[0,0,0,0,5],[0,1,0,0,-5],[1,0,0,0,5],[1,1,0,0,-5]];perimeter=orthogonalPerimeter;outlineConnect=0;targetShapes=umlLifeline;portConstraint=eastwest;newEdgeStyle={&quot;curved&quot;:0,&quot;rounded&quot;:0};fontFamily=宋体;fontSize=14;" parent="1x29o_3ZwKhWgOv2N2SG-8" vertex="1">
          <mxGeometry x="35" y="50" width="10" height="350" as="geometry" />
        </mxCell>
        <mxCell id="ad1gADm1mFAbiEcde9q4-28" value="Redis" style="shape=umlLifeline;perimeter=lifelinePerimeter;whiteSpace=wrap;html=1;container=1;dropTarget=0;collapsible=0;recursiveResize=0;outlineConnect=0;portConstraint=eastwest;newEdgeStyle={&quot;curved&quot;:0,&quot;rounded&quot;:0};fontFamily=宋体;fontSize=14;" parent="1" vertex="1">
          <mxGeometry x="595" y="50" width="80" height="420" as="geometry" />
        </mxCell>
        <mxCell id="ad1gADm1mFAbiEcde9q4-29" value="" style="html=1;points=[[0,0,0,0,5],[0,1,0,0,-5],[1,0,0,0,5],[1,1,0,0,-5]];perimeter=orthogonalPerimeter;outlineConnect=0;targetShapes=umlLifeline;portConstraint=eastwest;newEdgeStyle={&quot;curved&quot;:0,&quot;rounded&quot;:0};fontFamily=宋体;fontSize=14;" parent="ad1gADm1mFAbiEcde9q4-28" vertex="1">
          <mxGeometry x="35" y="50" width="10" height="350" as="geometry" />
        </mxCell>
        <mxCell id="ad1gADm1mFAbiEcde9q4-32" value="云函数" style="shape=umlLifeline;perimeter=lifelinePerimeter;whiteSpace=wrap;html=1;container=1;dropTarget=0;collapsible=0;recursiveResize=0;outlineConnect=0;portConstraint=eastwest;newEdgeStyle={&quot;curved&quot;:0,&quot;rounded&quot;:0};fontFamily=宋体;fontSize=14;" parent="1" vertex="1">
          <mxGeometry x="725" y="50" width="80" height="410" as="geometry" />
        </mxCell>
        <mxCell id="ad1gADm1mFAbiEcde9q4-33" value="" style="html=1;points=[[0,0,0,0,5],[0,1,0,0,-5],[1,0,0,0,5],[1,1,0,0,-5]];perimeter=orthogonalPerimeter;outlineConnect=0;targetShapes=umlLifeline;portConstraint=eastwest;newEdgeStyle={&quot;curved&quot;:0,&quot;rounded&quot;:0};fontFamily=宋体;fontSize=14;" parent="ad1gADm1mFAbiEcde9q4-32" vertex="1">
          <mxGeometry x="35" y="50" width="10" height="350" as="geometry" />
        </mxCell>
        <mxCell id="ad1gADm1mFAbiEcde9q4-43" value="" style="group" parent="1" vertex="1" connectable="0">
          <mxGeometry x="64.25" y="151" width="125.75" height="55" as="geometry" />
        </mxCell>
        <mxCell id="1x29o_3ZwKhWgOv2N2SG-41" value="" style="endArrow=classic;html=1;rounded=0;fontSize=14;fontFamily=宋体;" parent="ad1gADm1mFAbiEcde9q4-43" edge="1">
          <mxGeometry width="50" height="50" relative="1" as="geometry">
            <mxPoint y="32" as="sourcePoint" />
            <mxPoint x="130" y="32" as="targetPoint" />
          </mxGeometry>
        </mxCell>
        <mxCell id="1x29o_3ZwKhWgOv2N2SG-42" value="发送POST" style="text;html=1;align=center;verticalAlign=middle;whiteSpace=wrap;rounded=0;fontSize=14;fontFamily=宋体;" parent="ad1gADm1mFAbiEcde9q4-43" vertex="1">
          <mxGeometry x="14.544039145907472" y="7" width="98.45195729537366" height="26" as="geometry" />
        </mxCell>
        <mxCell id="ad1gADm1mFAbiEcde9q4-26" value="&lt;span style=&quot;background-color: transparent; color: light-dark(rgb(0, 0, 0), rgb(255, 255, 255));&quot;&gt;subscribe&lt;/span&gt;&lt;div&gt;(机器id,cid)&lt;/div&gt;" style="text;html=1;align=center;verticalAlign=middle;whiteSpace=wrap;rounded=0;fontSize=14;fontFamily=宋体;" parent="ad1gADm1mFAbiEcde9q4-43" vertex="1">
          <mxGeometry x="14.544039145907472" y="37" width="98.45195729537366" height="26" as="geometry" />
        </mxCell>
        <mxCell id="ad1gADm1mFAbiEcde9q4-31" value="&lt;font style=&quot;font-size: 12px;&quot;&gt;获取关联机器CID&lt;/font&gt;" style="text;html=1;align=center;verticalAlign=middle;whiteSpace=wrap;rounded=0;fontSize=14;fontFamily=宋体;spacing=0;" parent="1" vertex="1">
          <mxGeometry x="525" y="264" width="90" height="26" as="geometry" />
        </mxCell>
        <mxCell id="Edw0aC1XgpwA0pGwlr1n-15" value="" style="endArrow=classic;html=1;rounded=0;fontSize=14;fontFamily=宋体;startArrow=none;startFill=0;endFill=1;" parent="1" edge="1">
          <mxGeometry width="50" height="50" relative="1" as="geometry">
            <mxPoint x="205" y="204" as="sourcePoint" />
            <mxPoint x="345.5" y="204" as="targetPoint" />
          </mxGeometry>
        </mxCell>
        <mxCell id="Edw0aC1XgpwA0pGwlr1n-16" value="&lt;font style=&quot;font-size: 13px;&quot;&gt;调用subscribe方法&lt;/font&gt;" style="text;html=1;align=center;verticalAlign=middle;whiteSpace=wrap;rounded=0;fontSize=14;fontFamily=宋体;" parent="1" vertex="1">
          <mxGeometry x="210" y="180" width="118.75" height="26" as="geometry" />
        </mxCell>
        <mxCell id="Edw0aC1XgpwA0pGwlr1n-21" value="&lt;font&gt;获取并存储CID&lt;/font&gt;&lt;div&gt;&lt;font&gt;设置监听器&lt;/font&gt;&lt;/div&gt;" style="text;html=1;align=left;verticalAlign=middle;whiteSpace=wrap;rounded=0;fontSize=13;fontFamily=宋体;fillColor=default;" parent="1" vertex="1">
          <mxGeometry x="100" y="125" width="95.25" height="26" as="geometry" />
        </mxCell>
        <mxCell id="oUNCfqZzI2DMmbck5GxU-2" value="" style="endArrow=classic;html=1;rounded=0;" parent="1" edge="1">
          <mxGeometry width="50" height="50" relative="1" as="geometry">
            <mxPoint x="66.39999999999998" y="115" as="sourcePoint" />
            <mxPoint x="66.39999999999998" y="155" as="targetPoint" />
            <Array as="points">
              <mxPoint x="106.39999999999998" y="115" />
              <mxPoint x="106.39999999999998" y="155" />
              <mxPoint x="86.39999999999998" y="155" />
            </Array>
          </mxGeometry>
        </mxCell>
        <mxCell id="oUNCfqZzI2DMmbck5GxU-4" value="" style="endArrow=classic;html=1;rounded=0;" parent="1" edge="1">
          <mxGeometry width="50" height="50" relative="1" as="geometry">
            <mxPoint x="355" y="222" as="sourcePoint" />
            <mxPoint x="629.5000000000002" y="222" as="targetPoint" />
          </mxGeometry>
        </mxCell>
        <mxCell id="oUNCfqZzI2DMmbck5GxU-5" value="&lt;font style=&quot;font-size: 13px;&quot;&gt;构建&quot;机器:机器id:订阅者:CID&quot;&lt;/font&gt;&lt;div&gt;&lt;font style=&quot;font-size: 13px;&quot;&gt;键值对，存储&lt;/font&gt;&lt;/div&gt;" style="text;html=1;align=center;verticalAlign=middle;whiteSpace=wrap;rounded=0;fontSize=14;fontFamily=宋体;fillColor=default;" parent="1" vertex="1">
          <mxGeometry x="374" y="193" width="230" height="26" as="geometry" />
        </mxCell>
        <mxCell id="oUNCfqZzI2DMmbck5GxU-8" value="订单状态变化，&lt;div&gt;关联机器空闲&lt;/div&gt;" style="rounded=0;whiteSpace=wrap;html=1;fontFamily=宋体;" parent="1" vertex="1">
          <mxGeometry x="460" y="233" width="92.5" height="30" as="geometry" />
        </mxCell>
        <mxCell id="oUNCfqZzI2DMmbck5GxU-9" value="" style="endArrow=classic;html=1;rounded=0;" parent="1" edge="1">
          <mxGeometry width="50" height="50" relative="1" as="geometry">
            <mxPoint x="510" y="289" as="sourcePoint" />
            <mxPoint x="634.4999999999999" y="289" as="targetPoint" />
          </mxGeometry>
        </mxCell>
        <mxCell id="oUNCfqZzI2DMmbck5GxU-10" value="" style="endArrow=classic;html=1;rounded=0;" parent="1" edge="1">
          <mxGeometry width="50" height="50" relative="1" as="geometry">
            <mxPoint x="510" y="334" as="sourcePoint" />
            <mxPoint x="764.5" y="334" as="targetPoint" />
          </mxGeometry>
        </mxCell>
        <mxCell id="oUNCfqZzI2DMmbck5GxU-11" value="&lt;font style=&quot;font-size: 12px;&quot;&gt;通过sendNotification(cid,标题,内容,{洗衣点id,服务类型id})&lt;/font&gt;" style="text;html=1;align=center;verticalAlign=middle;whiteSpace=wrap;rounded=0;fontSize=14;fontFamily=宋体;spacing=0;fillColor=default;" parent="1" vertex="1">
          <mxGeometry x="524" y="300" width="225" height="26" as="geometry" />
        </mxCell>
        <mxCell id="oUNCfqZzI2DMmbck5GxU-12" value="&lt;font style=&quot;font-size: 12px;&quot;&gt;调用云函数&lt;/font&gt;" style="text;html=1;align=center;verticalAlign=middle;whiteSpace=wrap;rounded=0;fontSize=14;fontFamily=宋体;spacing=0;fillColor=default;" parent="1" vertex="1">
          <mxGeometry x="597.5" y="337" width="75" height="18" as="geometry" />
        </mxCell>
        <mxCell id="oUNCfqZzI2DMmbck5GxU-13" value="" style="endArrow=classic;html=1;rounded=0;" parent="1" edge="1">
          <mxGeometry width="50" height="50" relative="1" as="geometry">
            <mxPoint x="760" y="364" as="sourcePoint" />
            <mxPoint x="65" y="364" as="targetPoint" />
          </mxGeometry>
        </mxCell>
        <mxCell id="oUNCfqZzI2DMmbck5GxU-15" value="&lt;font style=&quot;font-size: 13px;&quot;&gt;发送push消息&lt;/font&gt;" style="text;html=1;align=center;verticalAlign=middle;whiteSpace=wrap;rounded=0;fontSize=14;fontFamily=宋体;" parent="1" vertex="1">
          <mxGeometry x="71.25" y="336" width="118.75" height="26" as="geometry" />
        </mxCell>
        <mxCell id="oUNCfqZzI2DMmbck5GxU-16" value="" style="endArrow=classic;html=1;rounded=0;" parent="1" edge="1">
          <mxGeometry width="50" height="50" relative="1" as="geometry">
            <mxPoint x="65.39999999999998" y="393" as="sourcePoint" />
            <mxPoint x="65.39999999999998" y="433" as="targetPoint" />
            <Array as="points">
              <mxPoint x="105.39999999999998" y="393" />
              <mxPoint x="105.39999999999998" y="433" />
              <mxPoint x="85.39999999999998" y="433" />
            </Array>
          </mxGeometry>
        </mxCell>
        <mxCell id="oUNCfqZzI2DMmbck5GxU-17" value="接收消息，&lt;div&gt;显示系统栏和&lt;/div&gt;&lt;div&gt;APP内通知&lt;/div&gt;&lt;div&gt;用户点击跳转&lt;/div&gt;" style="text;html=1;align=left;verticalAlign=middle;whiteSpace=wrap;rounded=0;fontSize=13;fontFamily=宋体;fillColor=default;" parent="1" vertex="1">
          <mxGeometry x="110" y="399" width="80" height="26" as="geometry" />
        </mxCell>
      </root>
    </mxGraphModel>
  </diagram>
</mxfile>
